Coordinates
version=1
nRows=32
nColumns=22
inDegrees=yes

Units are S.I. units (second, meters, Newtons, ...)
If the header above contains a line with 'inDegrees', this indicates whether rotational values are in degrees (yes) or radians (no).

endheader
time	pelvis_tilt	pelvis_list	pelvis_rotation	pelvis_tx	pelvis_ty	pelvis_tz	hip_flexion_r	hip_adduction_r	hip_rotation_r	knee_angle_r	ankle_angle_r	subtalar_angle_r	hip_flexion_l	hip_adduction_l	hip_rotation_l	knee_angle_l	ankle_angle_l	subtalar_angle_l	lumbar_extension	lumbar_bending	lumbar_rotation
      2.70000000	      1.35883205	     -1.81579118	     24.67523800	     -0.28608586	      0.90166989	      0.53277700	     26.28195726	      0.95616930	      7.96996037	    -17.79511326	     -1.03420354	      9.45162176	    -12.37000444	      0.97295898	     10.89453116	    -22.69926987	     20.46577052	     -9.34986655	     -9.11100516	     -3.02753270	    -10.02877190
      2.71000000	      1.41925275	     -2.28913371	     24.75746597	     -0.27578570	      0.90190795	      0.53058768	     26.44192513	      1.72279932	      8.13961291	    -19.03299484	     -1.35596167	      9.29617349	    -12.49352505	      0.37341161	     10.94554617	    -23.36220657	     19.54547923	     -9.04344942	     -8.76844890	     -2.52169457	     -9.88834253
      2.72000000	      1.51381954	     -2.78049557	     24.82968221	     -0.26533563	      0.90241587	      0.52821743	     26.52286120	      2.48078034	      8.18458524	    -20.19854041	     -1.51909646	      9.23911126	    -12.58135651	     -0.23115846	     10.98098673	    -24.13174661	     18.46625298	     -8.79672943	     -8.43390863	     -1.96427372	     -9.74981117
      2.73000000	      1.63276990	     -3.25150871	     24.91374339	     -0.25480537	      0.90316291	      0.52566076	     26.51679707	      3.17896393	      8.09439655	    -21.28579607	     -1.47282299	      9.27995157	    -12.60658484	     -0.80495635	     10.98005402	    -25.04938576	     17.18584561	     -8.43487636	     -8.12713982	     -1.40123797	     -9.65438698
      2.74000000	      1.78989770	     -3.70777944	     25.02799286	     -0.24426732	      0.90414904	      0.52293061	     26.35718981	      3.82580932	      7.92619124	    -22.18360536	     -1.28862985	      9.39721630	    -12.53673041	     -1.35997103	     10.93222598	    -26.17979156	     15.71852318	     -8.14513123	     -7.87243606	     -0.82035388	     -9.57958448
      2.75000000	      1.95774904	     -4.14458817	     25.17231572	     -0.23372456	      0.90530661	      0.52006843	     26.08347164	      4.41396560	      7.67887723	    -22.92024176	     -0.96457853	      9.56405350	    -12.35385571	     -1.89241344	     10.81613850	    -27.48941407	     14.02827553	     -7.75164359	     -7.64081872	     -0.24516480	     -9.55098693
      2.76000000	      2.13543844	     -4.55234106	     25.36547669	     -0.22327643	      0.90661426	      0.51709002	     25.68141077	      4.93209668	      7.35598871	    -23.46527164	     -0.52673600	      9.71772462	    -12.01784663	     -2.40026015	     10.61952971	    -29.03013338	     12.09433140	     -7.33518491	     -7.45022576	      0.31092987	     -9.54316223
      2.77000000	      2.31629121	     -4.90959877	     25.61545949	     -0.21304496	      0.90802267	      0.51404904	     25.16930339	      5.36374483	      6.97638657	    -23.84515820	     -0.00586789	      9.82743387	    -11.48169524	     -2.87843586	     10.28904805	    -30.85739011	      9.92231812	     -6.84086406	     -7.32369202	      0.82021322	     -9.58412083
      2.78000000	      2.48644714	     -5.24659302	     25.93367537	     -0.20304578	      0.90948246	      0.51092259	     24.56553580	      5.72746132	      6.51756314	    -24.03805363	      0.55891590	      9.86667267	    -10.72465610	     -3.35786433	      9.86743758	    -32.94122386	      7.48646538	     -6.38132520	     -7.22456514	      1.30920365	     -9.63402513
      2.79000000	      2.63795026	     -5.54828295	     26.30472210	     -0.19333968	      0.91092268	      0.50778953	     23.91066267	      6.02280375	      5.99393090	    -24.10725069	      1.19860410	      9.82969461	     -9.72826973	     -3.83842417	      9.32059529	    -35.28799078	      4.81652655	     -5.87016613	     -7.16182641	      1.74872700	     -9.67511455
      2.80000000	      2.77694098	     -5.84545713	     26.74972709	     -0.18398691	      0.91231261	      0.50462058	     23.21474503	      6.27701075	      5.39478515	    -24.04197193	      1.78538780	      9.71552524	     -8.47644784	     -4.36280733	      8.69444553	    -37.89018573	      1.93513979	     -5.49333004	     -7.12910339	      2.18135494	     -9.72108795
      2.81000000	      2.90104979	     -6.13643107	     27.24649623	     -0.17498971	      0.91360356	      0.50146316	     22.50251025	      6.50506332	      4.74536470	    -23.87852906	      2.33509662	      9.52830615	     -6.98652384	     -4.92982627	      8.01714742	    -40.70366244	     -1.10658431	     -5.22296443	     -7.12421962	      2.59766337	     -9.74302411
      2.82000000	      3.01452078	     -6.43363889	     27.78870417	     -0.16633153	      0.91475104	      0.49832112	     21.79836068	      6.73161212	      4.06611083	    -23.66032810	      2.87099205	      9.26809305	     -5.28134081	     -5.54820165	      7.34213683	    -43.67669992	     -4.24732759	     -5.08512566	     -7.13878742	      3.01154111	     -9.70857904
      2.83000000	      3.13615266	     -6.73944352	     28.36509663	     -0.15799955	      0.91575609	      0.49520259	     21.09863005	      6.97490875	      3.36729874	    -23.40454749	      3.33816020	      8.96008017	     -3.40370855	     -6.22089089	      6.70066684	    -46.75933215	     -7.37457925	     -5.10709339	     -7.18914336	      3.43464484	     -9.62958246
      2.84000000	      3.26107952	     -7.05685865	     28.96980654	     -0.14996972	      0.91659017	      0.49207272	     20.42277772	      7.24117782	      2.68666975	    -23.14117497	      3.81032057	      8.59441128	     -1.38355054	     -6.91721532	      6.16745780	    -49.88484439	    -10.38424350	     -5.25137540	     -7.25927433	      3.86985132	     -9.46203274
      2.85000000	      3.43230698	     -7.37203514	     29.59508062	     -0.14219322	      0.91733071	      0.48892856	     19.73333914	      7.54159894	      2.00792199	    -22.89003507	      4.20765524	      8.23291031	      0.69934380	     -7.63937752	      5.73012894	    -52.99492566	    -13.11404942	     -5.38946097	     -7.39609777	      4.32546050	     -9.23828852
      2.86000000	      3.62578999	     -7.67145567	     30.23353461	     -0.13462316	      0.91797929	      0.48573311	     19.03549648	      7.85888016	      1.39220076	    -22.64428787	      4.61906840	      7.85862081	      2.82221635	     -8.32105303	      5.44258038	    -56.02469914	    -15.40049746	     -5.42239065	     -7.56886230	      4.77340327	     -8.94910897
      2.87000000	      3.85563892	     -7.93608023	     30.87519302	     -0.12723936	      0.91858322	      0.48246367	     18.31942644	      8.18305753	      0.84072687	    -22.43352317	      5.03197992	      7.49375339	      4.93203005	     -8.93610639	      5.27958888	    -58.92696090	    -17.07423964	     -5.24849364	     -7.80071091	      5.20868197	     -8.61507471
      2.88000000	      4.10602556	     -8.14867000	     31.51221977	     -0.11998064	      0.91919362	      0.47908234	     17.56623750	      8.49047111	      0.36286287	    -22.22701444	      5.46745801	      7.13930616	      6.99906568	     -9.43223595	      5.24201170	    -61.64497285	    -18.05178807	     -4.84877175	     -8.07245593	      5.60020766	     -8.21584107
      2.89000000	      4.39744893	     -8.29878912	     32.13975800	     -0.11283159	      0.91987021	      0.47557222	     16.75774537	      8.77987217	     -0.06071377	    -22.04025275	      5.87693111	      6.84312859	      8.97486732	     -9.81198580	      5.28043534	    -64.13898932	    -18.29849942	     -4.35944604	     -8.41102913	      5.95646540	     -7.76447097
      2.90000000	      4.70386792	     -8.37478355	     32.75235747	     -0.10575726	      0.92063486	      0.47191941	     15.88360845	      9.02969761	     -0.40219556	    -21.83420929	      6.29518563	      6.58731116	     10.85911263	    -10.04454052	      5.37091639	    -66.37579114	    -17.90889141	     -3.92891199	     -8.78826519	      6.24937335	     -7.27336588
      2.91000000	      5.03081070	     -8.36371341	     33.34370368	     -0.09873629	      0.92153417	      0.46812220	     14.92361601	      9.23157654	     -0.66353619	    -21.60115601	      6.69447697	      6.42201934	     12.61297070	    -10.12829099	      5.47728321	    -68.32055884	    -16.94230423	     -3.69121154	     -9.21814943	      6.47198204	     -6.75672937
      2.92000000	      5.32414902	     -8.29492042	     33.89563566	     -0.09176403	      0.92246656	      0.46423353	     13.95933309	      9.37739010	     -0.88932462	    -21.37020666	      7.11045536	      6.21240678	     14.30337995	    -10.07442853	      5.56497413	    -69.97290801	    -15.64996142	     -3.58277151	     -9.62941218	      6.61585742	     -6.19797761
      2.93000000	      5.61053472	     -8.15740870	     34.41362288	     -0.08482294	      0.92349175	      0.46023475	     12.94040011	      9.47138611	     -1.07434620	    -21.11151256	      7.51215740	      6.01807515	     15.87624850	     -9.90119575	      5.61580033	    -71.30625503	    -14.11236016	     -3.66173865	    -10.05403708	      6.68975272	     -5.61431418
      2.94000000	      5.89061929	     -7.95526828	     34.88661010	     -0.07791006	      0.92460793	      0.45616122	     11.86262354	      9.51979806	     -1.20448271	    -20.81574036	      7.93024618	      5.78929629	     17.32297424	     -9.63473423	      5.60304103	    -72.31512858	    -12.44298824	     -4.01259077	    -10.49550277	      6.69883831	     -5.00610585
      2.95000000	      6.16057891	     -7.70504175	     35.33667852	     -0.07103993	      0.92579900	      0.45198543	     10.73479729	      9.52229280	     -1.34608149	    -20.46850362	      8.26938515	      5.63588427	     18.65267094	     -9.28482161	      5.56116598	    -72.99659083	    -10.72408665	     -4.33559651	    -10.93399462	      6.65960233	     -4.39436014
      2.96000000	      6.41068506	     -7.41218418	     35.73568027	     -0.06421298	      0.92701987	      0.44775403	      9.57740589	      9.48289361	     -1.45917046	    -20.09147880	      8.60964096	      5.47963777	     19.86777834	     -8.87275246	      5.45321325	    -73.35751350	     -9.01209531	     -4.71436702	    -11.36578493	      6.57124270	     -3.75779576
      2.97000000	      6.64316909	     -7.09719206	     36.10262815	     -0.05742095	      0.92824497	      0.44345921	      8.39384413	      9.41548597	     -1.57970997	    -19.66725171	      8.91599887	      5.33489560	     20.98212408	     -8.42918497	      5.29807397	    -73.40467259	     -7.35797746	     -5.04007425	    -11.77430024	      6.45475415	     -3.11536676
      2.98000000	      6.85698649	     -6.76993089	     36.43993550	     -0.05070443	      0.92943359	      0.43912747	      7.20742926	      9.32988329	     -1.68153475	    -19.22223111	      9.19819691	      5.19248952	     22.00750805	     -7.95902102	      5.11866309	    -73.15373224	     -5.78818739	     -5.30834713	    -12.16112105	      6.31905057	     -2.45514676
      2.99000000	      7.04321814	     -6.43976258	     36.74380561	     -0.04400187	      0.93055896	      0.43474890	      6.01703952	      9.22675610	     -1.78421895	    -18.73342682	      9.45718400	      5.04673776	     22.94860266	     -7.49727989	      4.88292038	    -72.60462406	     -4.31616604	     -5.50286313	    -12.50195166	      6.16445457	     -1.80452333
      3.00000000	      7.20642214	     -6.11521449	     37.02520538	     -0.03736695	      0.93158374	      0.43033743	      4.84542345	      9.11550720	     -1.88139631	    -18.23419816	      9.70671930	      4.90395761	     23.81747294	     -7.04594706	      4.62334073	    -71.77751099	     -2.95558452	     -5.58760615	    -12.80591390	      6.00379439	     -1.14788256
      3.01000000	      7.33560974	     -5.81527642	     37.28464371	     -0.03079280	      0.93245275	      0.42591951	      3.73143213	      9.00490853	     -1.99059109	    -17.75338139	      9.96437141	      4.77461599	     24.63889265	     -6.62513280	      4.34267861	    -70.68460023	     -1.70204628	     -5.56141063	    -13.05350426	      5.84058167	     -0.47790345
